<svg xmlns="http://www.w3.org/2000/svg" width="726" height="195" viewBox="0 0 544.118 145.671" preserveAspectRatio="xMidYMid meet" fill="#3d1f59"><path d="M316.282.303l-14.9 1.5c-13.3 1.3-17.4 2.9-19.8 7.8-1.6 3.3-1.7 8.3-1.7 63.1.1 62.4.2 64.7 4.5 68.6 1.7 1.5 4.2 1.9 14.2 2.2 13.8.5 19.2-.6 22.8-4.4 2.3-2.5 2.4-3 2.9-23.1.5-18.8.7-20.6 2.4-21.9 6.2-4.4 10.4-.1 19.7 20.1 6.2 13.6 8.2 16.8 12.9 21.6 6.5 6.6 12.3 8.9 22 8.9 11.1 0 20.4-6.1 25.1-16.4 3.2-7.1 2.7-9-3.7-12.6-7.6-4.2-14.2-10.6-20.3-19.5-2.8-4-5.1-7.5-5.1-7.8s2.5-1.9 5.6-3.7c7.8-4.4 14-11 17.7-18.8 2.7-5.8 3.2-7.8 3.1-14.7 0-5.6-.7-10-2.2-14.6-6.4-18.9-19.6-29.3-43.7-34.5-6.7-1.5-34.1-2.7-41.5-1.8zm32.9 41.8c4.8 1.6 7.6 5.7 7.5 11.2-.2 8.1-4.8 10.9-19.7 12l-9.7.7v-26.3l9.3.6c5 .4 10.7 1.2 12.6 1.8zm-188.4-40.3c-12.5 1.2-16.6 2.6-19.2 6.5-1.7 2.6-1.8 6.7-2.1 62.9-.3 65.3-.2 65.9 5.1 69.9 2.8 2 3.9 2.1 37.5 2.1 40.4-.1 48.8-.9 59.2-6.1 11.7-5.9 18.6-15.6 21-29.5 2.3-13.1-2.4-23.3-15.7-34.2l-7.5-6.2 2.8-2c12.2-8.6 17.6-22.5 14-36.4-3-11.9-10.8-19.5-23.1-22.5-15.9-4-52.3-6.3-72-4.5zm50.5 41.4c3.6 3.6 3.6 11.4 0 15-2.1 2.1-4 2.6-12 3.5l-11.2 1c-1.6 0-1.8-1.2-1.8-11.8v-11.7l11.2.7c10.2.7 11.5 1 13.8 3.3zm-11.3 41.5c5.7.5 11.1 1.4 12.2 1.9 4.3 2.3 5.1 13 1.3 16.4-2.5 2.3-9.5 3.6-18.9 3.7h-8.3v-11.5c0-10.3.2-11.5 1.8-11.5.9.1 6.3.5 11.9 1zm-154.9-79.1c-16.9 5.4-29.9 19.9-35.6 39.6-4.8 16.2-9.4 49.2-9.5 67.5 0 11.5.3 14.4 2.1 19.4 3.7 10 10 14.5 18.4 13.2 8.1-1.3 13.8-5.7 20.8-16.1 5.6-8.3 8.6-11 14.1-12.7 3-.8 4.8-.8 7.8 0 5.5 1.7 8.5 4.4 14.1 12.8 6.4 9.4 9.2 12 16 14.5 9.4 3.5 17.6.3 22.1-8.8 2.3-4.6 2.4-5.6 2.3-25.8 0-16.9-.4-23.5-2.2-34-3.1-18.1-7.7-34.7-11.9-43.4-6.6-13.3-19.6-23.9-33.5-27.1-6.8-1.5-18.7-1.1-25 .9zm22.8 48.3c3.3 3.1 3.5 3.8 4.4 12.3.5 4.9 1 10.5 1 12.2v3.3h-28.3l.7-10.3c.4-5.6 1.2-11.7 1.7-13.5 1.5-4.5 6.1-7.2 12.2-7.2 4 0 5.3.5 8.3 3.2zm402.8-48.8c-13.8 4.3-25.6 14.9-32.3 28.9-7.9 16.4-13.3 46.8-13.5 75.2-.1 19.7.7 24.3 5.1 29.6 3 3.5 9.4 6.8 13.3 6.9 7.1 0 17.3-8 24.3-19.1 5.4-8.7 13.4-12.5 20.8-10 4.5 1.5 7.7 4.4 12.6 11.6 5.8 8.4 10 12.4 16.1 15.3 6.5 2.9 10.8 2.5 16.6-1.5 7.7-5.5 11.4-18.1 10.2-35.5-.7-10.9-6.4-43.4-10.1-57.8-6.4-24.6-18.4-38.4-38-43.4-7.1-1.9-19.4-2-25.1-.2zm19.6 47.1c4.2 2.2 5.8 6 6.5 15.1.3 4.3.8 9.4 1.1 11.1l.5 3.3h-29.3l.6-4.8c.3-2.6.8-8.1 1.2-12.2.6-6.7 1-7.8 3.9-10.7 2.8-2.8 4-3.3 7.9-3.3 2.6 0 6 .7 7.6 1.5z"/></svg>