<svg xmlns="http://www.w3.org/2000/svg" width="1061" height="377" viewBox="0 0 1061 377" version="1.1"><path d="M 330 0.878 C 321.040 3.818, 313.532 10.454, 309.637 18.878 C 306.181 26.352, 306.289 254.033, 309.756 269.688 C 345.094 429.249, 571.798 403.097, 571.456 239.500 C 571.229 130.919, 460.689 65.848, 379.247 126.355 C 375.808 128.910, 372.789 131, 372.538 131 C 372.287 131, 371.951 106.813, 371.791 77.250 C 371.463 16.669, 371.792 19.310, 363.426 10.050 C 356.134 1.979, 340.076 -2.427, 330 0.878 M 117.500 104.623 C 6.359 121.464, -39.433 254.708, 38.158 335.491 C 73.106 371.876, 133.363 388.663, 155.991 368.318 C 182.074 344.867, 167.972 307.276, 132.066 304.540 C 75.311 300.216, 50.146 234.741, 89.944 194.944 C 124.891 159.997, 180.676 175.745, 194.642 224.500 C 196.149 229.764, 196.430 237.924, 196.930 291 L 197.500 351.500 200.930 357.826 C 214.615 383.067, 249.385 383.067, 263.070 357.826 L 266.500 351.500 266.799 289.500 C 267.172 212.021, 266.208 204.755, 251.840 176.785 C 226.555 127.559, 169.256 96.780, 117.500 104.623 M 717.500 105.413 C 703.277 108.135, 688.435 114.248, 676.673 122.226 C 673.468 124.400, 670.733 126.026, 670.596 125.840 C 670.458 125.653, 669.772 124.060, 669.072 122.300 C 659.352 97.870, 616.486 102.331, 609.501 128.500 C 606.173 140.969, 607.811 353.097, 611.290 360.182 C 623.022 384.072, 663.063 381.732, 670.490 356.721 C 671.774 352.397, 672.001 341.020, 672.008 280.568 C 672.012 236.151, 672.405 207.095, 673.056 203.086 C 677.591 175.135, 709.470 159.574, 750 165.528 C 779.868 169.915, 789.323 167.092, 796.047 151.779 C 809.700 120.687, 767.583 95.825, 717.500 105.413 M 905.097 105.546 C 806.707 122.802, 760.285 241.381, 820.256 322.264 C 860.403 376.410, 944.421 395.909, 959.853 354.662 C 969.507 328.860, 955.012 307.662, 925.500 304.425 C 888.504 300.367, 864.812 275.662, 864.676 241 C 864.387 167.217, 964.541 151.738, 987.613 222 C 989.248 226.979, 989.471 233.284, 989.960 288.500 C 990.500 349.500, 990.500 349.500, 993.160 355.175 C 1007.115 384.943, 1048.275 383.254, 1059.095 352.469 C 1061.963 344.311, 1061.531 225.502, 1058.588 213 C 1041.277 139.452, 975.266 93.240, 905.097 105.546 M 425.175 170.459 C 374.217 182.791, 357.052 252.112, 395.429 290.594 C 426.990 322.242, 482.062 313.129, 501.760 273 C 528.967 217.574, 483.276 156.398, 425.175 170.459" stroke="none" fill="#6834c4" fill-rule="evenodd"/></svg>