<svg xmlns="http://www.w3.org/2000/svg" width="400" height="400" viewBox="0 0 400 400" version="1.1"><path d="M 343.183 103.228 C 338.625 111.551, 238.919 295.356, 237.150 298.697 C 236.066 300.744, 236.436 301.146, 242.545 304.562 C 246.152 306.579, 249.323 308.011, 249.591 307.742 C 251.348 305.985, 359.994 104.437, 359.648 103.576 C 359.410 102.984, 356.504 101.027, 353.190 99.228 L 347.165 95.955 343.183 103.228 M 51 106.681 L 51 111 61.444 111 C 70.990 111, 72.125 111.204, 74.644 113.370 C 77.008 115.403, 77.504 116.787, 78.139 123.120 C 79.071 132.418, 78.970 263.185, 78.021 276.044 C 77.196 287.211, 75.588 290.444, 70.030 292.109 C 67.967 292.727, 62.842 293.059, 58.640 292.847 L 51 292.461 51 296.981 L 51 301.500 113.250 301.500 C 168.431 301.500, 176.244 301.308, 182.050 299.811 C 199.010 295.437, 209.428 289.047, 215.883 279.060 C 221.374 270.565, 223.355 262.741, 223.367 249.500 C 223.383 233.337, 220.244 223.914, 211.690 214.448 C 205.704 207.822, 197.918 203.321, 184.933 198.977 L 174.147 195.370 180.323 194.113 C 190.653 192.010, 199.895 186.936, 206.759 179.599 C 216.161 169.548, 219.393 158.060, 217.071 142.944 C 214.105 123.638, 203.405 112.193, 181.500 104.899 L 174.500 102.568 112.750 102.465 L 51 102.362 51 106.681 M 124.480 111.870 C 117.072 115.235, 116.047 121.358, 116.020 162.402 L 116 192.304 128.250 191.675 C 147.769 190.672, 158.506 187.210, 166.266 179.417 C 173.936 171.714, 177.324 159.436, 175.842 144.719 C 174.586 132.244, 166.759 119.979, 156.820 114.908 C 147.114 109.957, 131.849 108.523, 124.480 111.870 M 116.251 238.250 C 116.726 279.877, 117.303 284.758, 122.345 289.799 C 124.643 292.097, 125.890 292.426, 133.713 292.794 C 166.582 294.341, 183.575 275.603, 179.860 241.909 C 177.614 221.535, 168.214 210.067, 148.500 203.649 C 143.456 202.007, 128.179 200.049, 120.157 200.017 L 115.815 200 116.251 238.250" stroke="none" fill="#f9fafa" fill-rule="evenodd"/><path d="M -0 200.002 L -0 400.005 200.250 399.752 L 400.500 399.500 400.752 199.750 L 401.005 0 200.502 0 L 0 0 -0 200.002 M 0.490 200.500 C 0.490 310.500, 0.607 355.352, 0.750 300.170 C 0.893 244.989, 0.893 154.989, 0.750 100.170 C 0.607 45.352, 0.490 90.500, 0.490 200.500 M 343.183 103.228 C 338.625 111.551, 238.919 295.356, 237.150 298.697 C 236.066 300.744, 236.436 301.146, 242.545 304.562 C 246.152 306.579, 249.323 308.011, 249.591 307.742 C 251.348 305.985, 359.994 104.437, 359.648 103.576 C 359.410 102.984, 356.504 101.027, 353.190 99.228 L 347.165 95.955 343.183 103.228 M 51 106.681 L 51 111 61.444 111 C 70.990 111, 72.125 111.204, 74.644 113.370 C 77.008 115.403, 77.504 116.787, 78.139 123.120 C 79.071 132.418, 78.970 263.185, 78.021 276.044 C 77.196 287.211, 75.588 290.444, 70.030 292.109 C 67.967 292.727, 62.842 293.059, 58.640 292.847 L 51 292.461 51 296.981 L 51 301.500 113.250 301.500 C 168.431 301.500, 176.244 301.308, 182.050 299.811 C 199.010 295.437, 209.428 289.047, 215.883 279.060 C 221.374 270.565, 223.355 262.741, 223.367 249.500 C 223.383 233.337, 220.244 223.914, 211.690 214.448 C 205.704 207.822, 197.918 203.321, 184.933 198.977 L 174.147 195.370 180.323 194.113 C 190.653 192.010, 199.895 186.936, 206.759 179.599 C 216.161 169.548, 219.393 158.060, 217.071 142.944 C 214.105 123.638, 203.405 112.193, 181.500 104.899 L 174.500 102.568 112.750 102.465 L 51 102.362 51 106.681 M 124.480 111.870 C 117.072 115.235, 116.047 121.358, 116.020 162.402 L 116 192.304 128.250 191.675 C 147.769 190.672, 158.506 187.210, 166.266 179.417 C 173.936 171.714, 177.324 159.436, 175.842 144.719 C 174.586 132.244, 166.759 119.979, 156.820 114.908 C 147.114 109.957, 131.849 108.523, 124.480 111.870 M 116.251 238.250 C 116.726 279.877, 117.303 284.758, 122.345 289.799 C 124.643 292.097, 125.890 292.426, 133.713 292.794 C 166.582 294.341, 183.575 275.603, 179.860 241.909 C 177.614 221.535, 168.214 210.067, 148.500 203.649 C 143.456 202.007, 128.179 200.049, 120.157 200.017 L 115.815 200 116.251 238.250" stroke="none" fill="#043c5c" fill-rule="evenodd"/></svg>