<svg xmlns="http://www.w3.org/2000/svg" width="500" height="500" viewBox="0 0 500 500" version="1.1"><path d="M 0 133 C 0 206.150, 0.172 266, 0.383 266 C 1.620 266, 9.441 252.226, 9.937 249.172 L 10.533 245.507 15.368 242.343 C 22.410 237.735, 26.010 234.055, 28.179 229.246 C 29.403 226.531, 32.005 223.551, 35.369 221.011 C 38.268 218.823, 42.141 215.112, 43.975 212.766 C 45.810 210.420, 49.266 206.777, 51.655 204.672 L 56 200.844 56 197.856 C 56 196.213, 56.428 194.069, 56.951 193.091 C 58.356 190.466, 68.355 183.195, 71.648 182.404 C 75.955 181.370, 80 179.100, 80 177.717 C 80 177.040, 82.456 173.669, 85.458 170.227 C 88.460 166.785, 93.243 160.635, 96.089 156.560 L 101.262 149.151 103.852 148.501 C 106.485 147.840, 111.282 144.103, 119.900 136 C 122.532 133.525, 127.009 129.342, 129.848 126.705 C 132.688 124.067, 135.659 120.360, 136.450 118.465 C 138.759 112.939, 143.757 107.450, 149.155 104.512 C 151.913 103.011, 157.619 98.659, 161.835 94.840 C 166.051 91.022, 172.425 85.935, 176 83.535 C 179.575 81.135, 183.573 78.027, 184.885 76.628 C 186.197 75.228, 190.812 71.927, 195.142 69.292 L 203.013 64.500 205.757 59.023 L 208.500 53.545 213.500 51.706 C 216.250 50.694, 219.625 48.800, 221 47.497 C 222.375 46.193, 226.650 43.720, 230.500 42 C 234.350 40.280, 239.535 37.161, 242.023 35.068 C 244.511 32.976, 248.786 30.109, 251.523 28.697 C 254.260 27.285, 258.975 24.051, 262 21.510 C 265.025 18.968, 271.212 15.075, 275.750 12.859 C 280.287 10.642, 284 8.412, 284 7.902 C 284 7.392, 286.417 5.906, 289.372 4.599 C 292.327 3.292, 295.053 1.723, 295.431 1.112 L 296.118 -0 148.059 -0 L 0 0 0 133 M 358 2.616 L 358 5.233 351.529 4.540 C 343.986 3.732, 341 4.417, 341 6.956 L 341 8.777 337.675 9.401 C 335.846 9.744, 333.105 11.324, 331.584 12.913 L 328.817 15.800 324.409 16.461 C 321.984 16.825, 320 17.436, 320 17.819 C 320 18.201, 322.025 19.738, 324.500 21.233 C 326.975 22.728, 329 24.448, 329 25.055 L 329 26.159 322.697 25.484 L 316.393 24.809 309.947 27.449 C 300.450 31.339, 299.093 32.132, 298.446 34.171 C 297.680 36.584, 294.277 38.278, 282.830 41.945 L 273.437 44.954 270.218 48.275 L 267 51.595 267 55.878 L 267 60.161 263 61.732 L 259 63.303 259 65.652 L 259 68 255.066 68 L 251.133 68 250.816 70.750 L 250.500 73.500 245.441 74.010 C 240.499 74.508, 235 77.122, 235 78.973 C 235 79.483, 235.766 80.329, 236.703 80.854 L 238.406 81.806 237.080 83.403 C 236.351 84.281, 235.170 85, 234.454 85 C 233.739 85, 231.105 86.564, 228.601 88.475 C 226.097 90.386, 222.800 92.250, 221.274 92.617 C 219.748 92.984, 216.749 94.162, 214.609 95.234 L 210.718 97.185 206.359 96.531 C 199.068 95.438, 201.476 96.710, 210.874 98.917 C 216.634 100.269, 223.126 101, 229.374 101 L 239 101 238.978 102.250 C 238.931 104.946, 235.109 111.769, 232.495 113.825 C 229.515 116.169, 222.869 118.314, 220.186 117.797 C 216.951 117.174, 217.710 114.104, 221.678 111.759 L 225.500 109.500 221.584 109.180 L 217.669 108.860 210.274 112.514 L 202.878 116.169 203.506 119.028 L 204.134 121.887 199.817 123.025 C 197.443 123.651, 193.538 125.300, 191.140 126.688 C 186.659 129.283, 181.447 130.002, 176.937 128.647 L 174.374 127.877 171.937 129.861 L 169.500 131.845 174.852 134.332 L 180.205 136.820 178.168 137.910 C 177.048 138.509, 174.068 139, 171.547 139 L 166.962 139 167.603 141.555 L 168.245 144.111 166.284 146.305 C 165.206 147.512, 163.311 150.193, 162.072 152.263 C 160.834 154.332, 158.991 156.470, 157.976 157.013 C 155.267 158.462, 148.630 158.218, 141.660 156.412 L 135.531 154.824 131.516 156.015 C 123.487 158.397, 122.994 160.519, 130.259 161.427 C 133.151 161.788, 136.137 162.467, 136.896 162.935 L 138.274 163.787 137.552 166.644 C 137.155 168.215, 136.756 170.850, 136.665 172.500 L 136.500 175.500 140.750 176.442 C 143.087 176.960, 145 177.740, 145 178.175 C 145 178.610, 142.789 180.086, 140.088 181.456 C 137.386 182.825, 134.241 185.257, 133.099 186.861 C 130.600 190.370, 126.710 191.537, 122.846 189.936 C 120.209 188.844, 119.521 187.834, 119.920 185.635 C 120.006 185.160, 115.336 184.946, 109.541 185.160 L 99.005 185.550 96.753 187.808 L 94.500 190.066 95.823 190.887 C 96.550 191.338, 101.371 191.985, 106.535 192.325 C 115.019 192.882, 123 194.913, 123 196.515 C 123 196.854, 122.512 198.044, 121.915 199.159 C 119.342 203.966, 124.010 208.507, 128.379 205.447 C 130.395 204.035, 143 203.308, 143 204.604 C 143 204.936, 139.400 209.219, 135 214.121 C 130.600 219.023, 127 223.380, 127 223.805 C 127 224.229, 125.045 226.211, 122.656 228.208 L 118.311 231.840 115.906 230.635 C 114.441 229.902, 113.490 228.542, 113.474 227.157 L 113.448 224.883 104.258 224.692 L 95.068 224.500 93.284 222.689 L 91.500 220.878 93.279 219.558 L 95.057 218.238 88.610 216.492 C 81.022 214.438, 76.238 215.020, 72.254 218.482 L 69.500 220.874 71.147 222.549 L 72.795 224.223 81.147 224.503 C 91.083 224.835, 93 225.476, 93 228.467 L 93 230.720 98.577 231.296 C 104.416 231.898, 109.505 234.374, 108.441 236.096 C 108.051 236.726, 105.202 236.845, 100.829 236.415 L 93.841 235.726 94.170 238.590 L 94.500 241.455 98.968 243.099 C 101.425 244.004, 103.886 245.458, 104.437 246.330 L 105.437 247.917 103.219 250.918 C 101.821 252.808, 101 255.359, 101 257.812 C 101 260.210, 100.122 263.009, 98.713 265.102 L 96.426 268.500 91.235 270.575 C 84.560 273.244, 82.195 275.446, 81.388 279.744 L 80.737 283.213 75.276 288.356 C 72.224 291.231, 68.288 296.367, 66.354 300 C 64.451 303.575, 61.740 308.153, 60.329 310.174 L 57.763 313.848 55.632 313.069 C 53.610 312.331, 51.746 309.626, 50.586 305.750 L 50.063 304 46.096 304 C 43.915 304, 40.967 304.442, 39.546 304.982 L 36.962 305.965 39.981 310.133 C 41.641 312.425, 43 315.111, 43 316.103 C 43 317.094, 41.200 319.352, 39 321.120 C 36.801 322.888, 35.166 324.500, 35.369 324.702 C 36.157 325.490, 50.722 318.167, 51.285 316.699 L 51.883 315.142 54.691 315.887 L 57.500 316.632 57.811 319.790 L 58.123 322.948 51.561 329.935 C 47.953 333.777, 45 337.423, 45 338.036 C 45 340.348, 36.645 360.626, 34.507 363.502 C 33.280 365.153, 31.570 369.600, 30.707 373.383 C 28.370 383.629, 24.141 387.965, 11.500 393.072 L 8.500 394.285 11.727 395.165 C 13.502 395.649, 15.446 396.965, 16.048 398.090 L 17.142 400.134 15.621 402.456 C 14.784 403.733, 11.977 405.501, 9.383 406.385 C 3.882 408.260, 1 410.575, 1 413.122 C 1 414.118, 3.025 417.213, 5.500 420 C 7.975 422.787, 10 425.418, 10 425.846 C 10 426.275, 8.650 427.919, 7 429.500 L 4 432.374 4 436.781 L 4 441.187 2 441.710 L 0 442.233 0 471.117 L 0 500 249.941 500 C 387.409 500, 500.040 499.663, 500.233 499.250 C 500.426 498.837, 500.410 386.338, 500.197 249.250 L 499.810 0 428.905 0 L 358 0 358 2.616 M 345 10.986 C 345 11.861, 348.147 14, 349.434 14 C 350.955 14, 349.713 12.190, 347.500 11.182 C 346.072 10.531, 345 10.447, 345 10.986 M 346 19 C 346 19.550, 346.927 20, 348.059 20 C 349.191 20, 349.840 19.550, 349.500 19 C 349.160 18.450, 348.234 18, 347.441 18 C 346.648 18, 346 18.450, 346 19 M 325.708 29.010 L 325.187 31 328.035 31 C 329.601 31, 331.179 30.520, 331.541 29.933 C 332.357 28.614, 332.149 28.437, 328.864 27.650 L 326.228 27.019 325.708 29.010 M 311 42.393 C 311 43.440, 311.870 44, 313.500 44 C 314.875 44, 316 43.550, 316 43 C 316 42.450, 315.587 42, 315.082 42 C 314.577 42, 313.452 41.727, 312.582 41.393 C 311.544 40.995, 311 41.338, 311 42.393 M 317 43.489 C 317 44.465, 317.860 44.906, 319.500 44.771 C 322.334 44.536, 322.770 43.509, 320.418 42.607 C 317.920 41.648, 317 41.885, 317 43.489 M 290 54.490 C 286.425 56.356, 281.137 58.431, 278.250 59.101 C 272.590 60.413, 271.849 61.314, 275.028 63.015 C 277.851 64.526, 276.764 65.657, 271.762 66.414 C 269.418 66.768, 266.904 67.430, 266.176 67.884 L 264.852 68.709 266.598 70.455 L 268.344 72.201 272.407 71.551 C 278.979 70.500, 287.868 66.049, 289.270 63.107 C 289.954 61.673, 292.623 59.425, 295.203 58.112 C 299.813 55.764, 301.554 53.705, 300.444 51.910 C 299.460 50.317, 296.676 51.005, 290 54.490 M 259.701 78.632 C 258.334 79.999, 259.028 81.135, 261.040 80.820 C 262.161 80.644, 263.085 80.050, 263.092 79.500 C 263.109 78.283, 260.674 77.660, 259.701 78.632 M 249.913 86.250 C 249.276 87.487, 247.573 89.772, 246.128 91.327 L 243.500 94.154 246.306 96.577 C 249.769 99.567, 252 99.687, 252 96.882 C 252 95.717, 253.350 93.226, 255 91.347 C 256.650 89.468, 258 87.046, 258 85.965 L 258 84 254.535 84 L 251.070 84 249.913 86.250 M 217 120.500 C 217 121.362, 217.902 122, 219.122 122 L 221.245 122 220 120.500 C 219.315 119.675, 218.360 119, 217.878 119 C 217.395 119, 217 119.675, 217 120.500 M 211 124.930 L 211 127 213.573 127 L 216.147 127 215.813 125.250 C 215.630 124.287, 214.472 123.356, 213.240 123.180 L 211 122.861 211 124.930 M 201.736 131.698 C 200.766 131.948, 199.310 133.434, 198.499 135.001 L 197.026 137.851 191.519 139.452 L 186.012 141.052 184.324 143.629 C 183.395 145.046, 180.984 147.247, 178.966 148.521 C 176.708 149.947, 174.470 152.596, 173.148 155.408 C 170.249 161.576, 170.371 163, 173.797 163 L 176.594 163 180.515 158.984 C 182.672 156.776, 187.376 153.216, 190.968 151.074 C 194.561 148.932, 199.186 145.677, 201.246 143.840 L 204.992 140.500 205.246 136.108 C 205.504 131.648, 204.897 130.885, 201.736 131.698 M 164.320 169.295 C 159.537 171.818, 148.904 183.969, 147.198 188.862 C 146.568 190.670, 144.864 193.561, 143.412 195.287 C 138.609 200.995, 144.435 200.228, 153.901 193.907 L 160.076 189.784 162.443 185.142 C 163.745 182.589, 166.629 177.831, 168.852 174.569 C 174.322 166.544, 172.829 164.807, 164.320 169.295 M 0.442 471 C 0.442 487.225, 0.580 493.863, 0.748 485.750 C 0.916 477.637, 0.916 464.362, 0.748 456.250 C 0.580 448.137, 0.442 454.775, 0.442 471" stroke="none" fill="#e7e7e9" fill-rule="evenodd"/><path d="M 295.431 1.112 C 295.053 1.723, 292.327 3.292, 289.372 4.599 C 286.417 5.906, 284 7.392, 284 7.902 C 284 8.412, 280.288 10.642, 275.750 12.859 C 271.212 15.075, 265.025 18.968, 262 21.510 C 258.975 24.051, 254.260 27.285, 251.523 28.697 C 248.786 30.109, 244.511 32.976, 242.023 35.068 C 239.535 37.161, 234.350 40.280, 230.500 42 C 226.650 43.720, 222.375 46.193, 221 47.497 C 219.625 48.800, 216.250 50.694, 213.500 51.706 L 208.500 53.545 205.757 59.023 L 203.013 64.500 195.142 69.292 C 190.812 71.927, 186.197 75.228, 184.885 76.628 C 183.573 78.027, 179.575 81.135, 176 83.535 C 172.425 85.935, 166.051 91.022, 161.835 94.840 C 157.619 98.659, 151.913 103.011, 149.155 104.512 C 143.757 107.450, 138.759 112.939, 136.450 118.465 C 135.659 120.360, 132.688 124.067, 129.848 126.705 C 127.009 129.342, 122.532 133.525, 119.900 136 C 111.282 144.103, 106.485 147.840, 103.852 148.501 L 101.262 149.151 96.089 156.560 C 93.243 160.635, 88.460 166.785, 85.458 170.227 C 82.456 173.669, 80 177.040, 80 177.717 C 80 179.100, 75.955 181.370, 71.648 182.404 C 68.355 183.195, 58.356 190.466, 56.951 193.091 C 56.428 194.069, 56 196.213, 56 197.856 L 56 200.844 51.655 204.672 C 49.266 206.777, 45.810 210.420, 43.975 212.766 C 42.141 215.112, 38.268 218.823, 35.369 221.011 C 32.005 223.551, 29.403 226.531, 28.179 229.246 C 26.010 234.055, 22.410 237.735, 15.368 242.343 L 10.533 245.507 9.927 249.232 C 9.594 251.281, 7.224 256.112, 4.661 259.967 L 0 266.976 0 354.561 L 0 442.147 1.750 441.814 L 3.500 441.482 3.799 436.881 L 4.098 432.280 7.049 429.453 C 8.672 427.898, 10 426.275, 10 425.846 C 10 425.418, 7.975 422.787, 5.500 420 C 3.025 417.213, 1 414.118, 1 413.122 C 1 410.575, 3.882 408.260, 9.383 406.385 C 11.977 405.501, 14.784 403.733, 15.621 402.456 L 17.142 400.134 16.048 398.090 C 15.446 396.965, 13.502 395.649, 11.727 395.165 L 8.500 394.285 11.500 393.072 C 24.141 387.965, 28.370 383.629, 30.707 373.383 C 31.570 369.600, 33.280 365.153, 34.507 363.502 C 36.645 360.626, 45 340.348, 45 338.036 C 45 337.423, 47.953 333.777, 51.561 329.935 L 58.123 322.948 57.811 319.790 L 57.500 316.632 54.691 315.887 L 51.883 315.142 51.285 316.699 C 50.722 318.167, 36.157 325.490, 35.369 324.702 C 35.166 324.500, 36.801 322.888, 39 321.120 C 41.200 319.352, 43 317.094, 43 316.103 C 43 315.111, 41.641 312.425, 39.981 310.133 L 36.962 305.965 39.546 304.982 C 40.967 304.442, 43.915 304, 46.096 304 L 50.063 304 50.586 305.750 C 51.746 309.626, 53.610 312.331, 55.632 313.069 L 57.763 313.848 60.329 310.174 C 61.740 308.153, 64.451 303.575, 66.354 300 C 68.288 296.367, 72.224 291.231, 75.276 288.356 L 80.737 283.213 81.388 279.744 C 82.195 275.446, 84.560 273.244, 91.235 270.575 L 96.426 268.500 98.713 265.102 C 100.122 263.009, 101 260.210, 101 257.812 C 101 255.359, 101.821 252.808, 103.219 250.918 L 105.437 247.917 104.437 246.330 C 103.886 245.458, 101.425 244.004, 98.968 243.099 L 94.500 241.455 94.170 238.590 L 93.841 235.726 100.829 236.415 C 105.202 236.845, 108.051 236.726, 108.441 236.096 C 109.505 234.374, 104.416 231.898, 98.577 231.296 L 93 230.720 93 228.467 C 93 225.476, 91.083 224.835, 81.147 224.503 L 72.795 224.223 71.147 222.549 L 69.500 220.874 72.254 218.482 C 76.238 215.020, 81.022 214.438, 88.610 216.492 L 95.057 218.238 93.279 219.558 L 91.500 220.878 93.284 222.689 L 95.068 224.500 104.258 224.692 L 113.448 224.883 113.474 227.157 C 113.490 228.542, 114.441 229.902, 115.906 230.635 L 118.311 231.840 122.656 228.208 C 125.045 226.211, 127 224.229, 127 223.805 C 127 223.380, 130.600 219.023, 135 214.121 C 139.400 209.219, 143 204.936, 143 204.604 C 143 203.308, 130.395 204.035, 128.379 205.447 C 124.010 208.507, 119.342 203.966, 121.915 199.159 C 122.512 198.044, 123 196.854, 123 196.515 C 123 194.913, 115.019 192.882, 106.535 192.325 C 101.371 191.985, 96.550 191.338, 95.823 190.887 L 94.500 190.066 96.753 187.808 L 99.005 185.550 109.541 185.160 C 115.336 184.946, 120.006 185.160, 119.920 185.635 C 119.521 187.834, 120.209 188.844, 122.846 189.936 C 126.710 191.537, 130.600 190.370, 133.099 186.861 C 134.241 185.257, 137.386 182.825, 140.088 181.456 C 142.789 180.086, 145 178.610, 145 178.175 C 145 177.740, 143.088 176.960, 140.750 176.442 L 136.500 175.500 136.665 172.500 C 136.756 170.850, 137.155 168.215, 137.552 166.644 L 138.274 163.787 136.896 162.935 C 136.137 162.467, 133.151 161.788, 130.259 161.427 C 122.994 160.519, 123.487 158.397, 131.516 156.015 L 135.531 154.824 141.660 156.412 C 148.630 158.218, 155.267 158.462, 157.976 157.013 C 158.991 156.470, 160.834 154.332, 162.072 152.263 C 163.311 150.193, 165.206 147.512, 166.284 146.305 L 168.245 144.111 167.603 141.555 L 166.962 139 171.547 139 C 174.068 139, 177.048 138.509, 178.168 137.910 L 180.205 136.820 174.852 134.332 L 169.500 131.845 171.937 129.861 L 174.374 127.877 176.937 128.647 C 181.447 130.002, 186.659 129.283, 191.140 126.688 C 193.538 125.300, 197.443 123.651, 199.817 123.025 L 204.134 121.887 203.506 119.028 L 202.878 116.169 210.274 112.514 L 217.669 108.860 221.584 109.180 L 225.500 109.500 221.678 111.759 C 217.710 114.104, 216.951 117.174, 220.186 117.797 C 222.869 118.314, 229.515 116.169, 232.495 113.825 C 235.109 111.769, 238.931 104.946, 238.978 102.250 L 239 101 229.374 101 C 223.126 101, 216.634 100.269, 210.874 98.917 C 201.476 96.710, 199.068 95.438, 206.359 96.531 L 210.718 97.185 214.609 95.234 C 216.749 94.162, 219.748 92.984, 221.274 92.617 C 222.800 92.250, 226.097 90.386, 228.601 88.475 C 231.105 86.564, 233.739 85, 234.454 85 C 235.170 85, 236.351 84.281, 237.080 83.403 L 238.406 81.806 236.703 80.854 C 235.766 80.329, 235 79.483, 235 78.973 C 235 77.122, 240.499 74.508, 245.441 74.010 L 250.500 73.500 250.816 70.750 L 251.133 68 255.066 68 L 259 68 259 65.652 L 259 63.303 263 61.732 L 267 60.161 267 55.878 L 267 51.595 270.218 48.275 L 273.437 44.954 282.830 41.945 C 294.277 38.278, 297.680 36.584, 298.446 34.171 C 299.093 32.132, 300.450 31.339, 309.947 27.449 L 316.393 24.809 322.697 25.484 L 329 26.159 329 25.055 C 329 24.448, 326.975 22.728, 324.500 21.233 C 322.025 19.738, 320 18.201, 320 17.819 C 320 17.436, 321.984 16.825, 324.409 16.461 L 328.817 15.800 331.584 12.913 C 333.105 11.324, 335.846 9.744, 337.675 9.401 L 341 8.777 341 6.956 C 341 4.417, 343.986 3.732, 351.529 4.540 L 358 5.233 358 2.616 L 358 0 327.059 0 L 296.118 0 295.431 1.112 M 345 10.986 C 345 11.861, 348.147 14, 349.434 14 C 350.955 14, 349.713 12.190, 347.500 11.182 C 346.072 10.531, 345 10.447, 345 10.986 M 346 19 C 346 19.550, 346.927 20, 348.059 20 C 349.191 20, 349.840 19.550, 349.500 19 C 349.160 18.450, 348.234 18, 347.441 18 C 346.648 18, 346 18.450, 346 19 M 325.708 29.010 L 325.187 31 328.035 31 C 329.601 31, 331.179 30.520, 331.541 29.933 C 332.357 28.614, 332.149 28.437, 328.864 27.650 L 326.228 27.019 325.708 29.010 M 311 42.393 C 311 43.440, 311.870 44, 313.500 44 C 314.875 44, 316 43.550, 316 43 C 316 42.450, 315.587 42, 315.082 42 C 314.577 42, 313.452 41.727, 312.582 41.393 C 311.544 40.995, 311 41.338, 311 42.393 M 317 43.489 C 317 44.465, 317.860 44.906, 319.500 44.771 C 322.334 44.536, 322.770 43.509, 320.418 42.607 C 317.920 41.648, 317 41.885, 317 43.489 M 290 54.490 C 286.425 56.356, 281.137 58.431, 278.250 59.101 C 272.590 60.413, 271.849 61.314, 275.028 63.015 C 277.851 64.526, 276.764 65.657, 271.762 66.414 C 269.418 66.768, 266.904 67.430, 266.176 67.884 L 264.852 68.709 266.598 70.455 L 268.344 72.201 272.407 71.551 C 278.979 70.500, 287.868 66.049, 289.270 63.107 C 289.954 61.673, 292.623 59.425, 295.203 58.112 C 299.813 55.764, 301.554 53.705, 300.444 51.910 C 299.460 50.317, 296.676 51.005, 290 54.490 M 259.701 78.632 C 258.334 79.999, 259.028 81.135, 261.040 80.820 C 262.161 80.644, 263.085 80.050, 263.092 79.500 C 263.109 78.283, 260.674 77.660, 259.701 78.632 M 249.913 86.250 C 249.276 87.487, 247.573 89.772, 246.128 91.327 L 243.500 94.154 246.306 96.577 C 249.769 99.567, 252 99.687, 252 96.882 C 252 95.717, 253.350 93.226, 255 91.347 C 256.650 89.468, 258 87.046, 258 85.965 L 258 84 254.535 84 L 251.070 84 249.913 86.250 M 217 120.500 C 217 121.362, 217.902 122, 219.122 122 L 221.245 122 220 120.500 C 219.315 119.675, 218.360 119, 217.878 119 C 217.395 119, 217 119.675, 217 120.500 M 211 124.930 L 211 127 213.573 127 L 216.147 127 215.813 125.250 C 215.630 124.287, 214.472 123.356, 213.240 123.180 L 211 122.861 211 124.930 M 201.736 131.698 C 200.766 131.948, 199.310 133.434, 198.499 135.001 L 197.026 137.851 191.519 139.452 L 186.012 141.052 184.324 143.629 C 183.395 145.046, 180.984 147.247, 178.966 148.521 C 176.708 149.947, 174.470 152.596, 173.148 155.408 C 170.249 161.576, 170.371 163, 173.797 163 L 176.594 163 180.515 158.984 C 182.672 156.776, 187.376 153.216, 190.968 151.074 C 194.561 148.932, 199.186 145.677, 201.246 143.840 L 204.992 140.500 205.246 136.108 C 205.504 131.648, 204.897 130.885, 201.736 131.698 M 164.320 169.295 C 159.537 171.818, 148.904 183.969, 147.198 188.862 C 146.568 190.670, 144.864 193.561, 143.412 195.287 C 138.609 200.995, 144.435 200.228, 153.901 193.907 L 160.076 189.784 162.443 185.142 C 163.745 182.589, 166.629 177.831, 168.852 174.569 C 174.322 166.544, 172.829 164.807, 164.320 169.295" stroke="none" fill="#7d2737" fill-rule="evenodd"/></svg>