<?xml version="1.0" encoding="iso-8859-1"?>
<!-- Uploaded to: SVG Repo, www.svgrepo.com, Generator: SVG Repo Mixer Tools -->
<svg height="800px" width="800px" version="1.1" id="Layer_1" xmlns="http://www.w3.org/2000/svg" xmlns:xlink="http://www.w3.org/1999/xlink" 
	 viewBox="0 0 496.158 496.158" xml:space="preserve">
<path style="fill:#334D5C;" d="M248.082,0.002C111.07,0.002,0,111.062,0,248.085c0,137.001,111.07,248.07,248.082,248.07
	c137.006,0,248.076-111.069,248.076-248.07C496.158,111.062,385.088,0.002,248.082,0.002z"/>
<g>
	<polygon style="fill:#DBBB00;" points="429.005,198.864 411.194,198.236 405.599,181.858 400.003,198.236 382.192,198.864 
		396.545,208.879 391.133,226.38 405.599,215.457 420.064,226.38 414.652,208.879 	"/>
	<polygon style="fill:#DBBB00;" points="412.877,203.293 417.067,191.88 406.544,198.381 396.848,191.247 399.916,202.888 
		389.998,210.281 402.152,210.583 405.984,222.678 410.164,210.834 422.714,211.305 	"/>
	<polygon style="fill:#DBBB00;" points="252.135,68.5 234.324,67.872 228.728,51.495 223.133,67.872 205.322,68.5 219.675,78.515 
		214.263,96.017 228.728,85.093 243.194,96.017 237.782,78.515 	"/>
	<polygon style="fill:#DBBB00;" points="236.007,72.929 240.197,61.517 229.674,68.018 219.977,60.883 223.046,72.524 
		213.128,79.917 225.282,80.22 229.114,92.314 233.294,80.471 245.844,80.941 	"/>
	<polygon style="fill:#DBBB00;" points="102.583,164.649 84.772,164.021 79.177,147.643 73.582,164.021 55.77,164.649 
		70.123,174.664 64.711,192.165 79.177,181.242 93.642,192.165 88.23,174.664 	"/>
	<polygon style="fill:#DBBB00;" points="86.455,169.078 90.645,157.665 80.122,164.166 70.426,157.032 73.494,168.673 
		63.576,176.066 75.73,176.369 79.562,188.463 83.742,176.62 96.292,177.09 	"/>
</g>
<path style="fill:#44A048;" d="M248.079,346.078c-134.544,0-215.647,24.703-215.647,24.703
	c42.702,74.882,123.276,125.374,215.65,125.374c92.369,0,172.943-50.491,215.645-125.373
	C463.726,370.781,382.623,346.078,248.079,346.078z"/>
<g>
	<path style="fill:#CCD3D6;" d="M245.08,279.6c-3.609,0-6.529,2.923-6.529,6.53v127.986c0,3.608,2.92,6.531,6.529,6.531
		c3.604,0,6.529-2.923,6.529-6.531V286.132C251.609,282.523,248.684,279.6,245.08,279.6z"/>
	<path style="fill:#CCD3D6;" d="M221.087,268.741c-3.349-1.345-7.149,0.278-8.493,3.625l-47.712,118.758
		c-1.347,3.349,0.274,7.149,3.62,8.494c3.347,1.345,7.15-0.279,8.494-3.625l47.713-118.759
		C226.055,273.887,224.428,270.086,221.087,268.741z"/>
	<path style="fill:#CCD3D6;" d="M324.056,391.124l-47.712-118.758c-1.342-3.348-5.145-4.97-8.496-3.625
		c-3.341,1.345-4.968,5.146-3.621,8.493l47.711,118.759c1.344,3.347,5.148,4.971,8.496,3.625
		C323.779,398.273,325.402,394.473,324.056,391.124z"/>
</g>
<path d="M324.056,391.124l-6.338-15.772c-2.714,3.68-7.819,5.74-12.296,4.422l6.516,16.219c1.344,3.347,5.148,4.971,8.496,3.625
	C323.779,398.273,325.402,394.473,324.056,391.124z"/>
<path d="M171.533,375.352l-6.338,15.772c-1.348,3.349,0.275,7.149,3.621,8.494s7.152-0.279,8.496-3.625l6.516-16.219
	C179.351,381.092,174.246,379.033,171.533,375.352z"/>
<path d="M251.62,396.664c-3.657,2.894-9.163,2.891-13.058,0.489l0.012,16.999c0,3.608,2.928,6.528,6.533,6.527
	c3.604-0.002,6.529-2.929,6.527-6.536L251.62,396.664z"/>
<path d="M243.758,249.746c-13.852,0-40.593,12.993-40.593,19.855v15.277l41.435,7.134l41.385-7.134v-15.276
	C285.984,262.74,257.61,249.746,243.758,249.746z"/>
<path style="fill:#353535;" d="M243.758,249.746c-13.852,0-40.593,12.993-40.593,19.855l41.435,6.043l41.385-6.043
	C285.984,262.74,257.61,249.746,243.758,249.746z"/>
<path d="M231.33,200.912v11.465c0,2.196,1.779,3.975,3.973,3.975h18.543c2.196,0,3.974-1.779,3.974-3.975v-20.94L231.33,200.912z"/>
<path style="fill:#CCD3D6;" d="M344.225,94.55l-190.049,81.457c-1.427,0.542-2.145,2.133-1.605,3.559l4.15,10.955l-21.486,8.138
	l-23.838,1.339l11.725,32.276l19.131-15.103l21.482-8.138l4.148,10.952c0.26,0.684,0.779,1.239,1.446,1.539
	c0.362,0.163,0.749,0.244,1.134,0.244c0.33,0,0.664-0.06,0.979-0.179l196.316-64.924L344.225,94.55z"/>
<path style="fill:#D9DCDD;" d="M344.225,94.55l-190.049,81.457c-1.427,0.542-2.145,2.133-1.605,3.559l4.15,10.955l-21.486,8.138
	l-23.838,1.339l2.264,16.782l273.904-104.597L344.225,94.55z"/>
<path style="fill:#282828;" d="M401.375,148.633L374.727,78.29c-0.261-0.685-0.779-1.238-1.447-1.539
	c-0.668-0.3-1.428-0.324-2.111-0.064l-26.897,10.195c-1.425,0.539-2.144,2.132-1.604,3.558l1.559,4.111l23.533,62.115l1.56,4.115
	c0.259,0.684,0.779,1.238,1.446,1.538c0.361,0.162,0.746,0.244,1.135,0.244c0.331,0,0.663-0.059,0.979-0.18l26.893-10.192
	C401.195,151.651,401.913,150.057,401.375,148.633z"/>
<path d="M401.375,148.633l-13.811-36.451l-32.08,12.09l12.273,32.393l1.56,4.115c0.259,0.684,0.779,1.238,1.446,1.538
	c0.361,0.162,0.746,0.244,1.135,0.244c0.331,0,0.663-0.059,0.979-0.18l26.893-10.192
	C401.195,151.651,401.913,150.057,401.375,148.633z"/>
<path style="fill:#282828;" d="M111.394,199.996l-3.115,0.175c-0.879,0.05-1.681,0.515-2.162,1.252
	c-0.479,0.737-0.578,1.658-0.266,2.481l10.914,28.809c0.313,0.823,0.998,1.448,1.845,1.682c0.241,0.067,0.493,0.1,0.737,0.1
	c0.613,0,1.217-0.204,1.709-0.593l2.064-1.629L111.394,199.996z"/>
<path d="M117.014,215.461l-5.914,2.295l5.666,14.958c0.313,0.823,0.998,1.448,1.845,1.682c0.241,0.067,0.493,0.1,0.737,0.1
	c0.613,0,1.217-0.204,1.709-0.593l2.064-1.629L117.014,215.461z"/>
<path d="M237.59,171.77v81.296c0,3.345,13.969,3.345,13.969,0v-81.296C251.558,168.424,237.59,168.424,237.59,171.77z"/>
<circle cx="243.969" cy="171.138" r="9.443"/>
<circle style="fill:#353535;" cx="243.969" cy="171.138" r="4.427"/>
</svg>