<svg id="svg" version="1.1" xmlns="http://www.w3.org/2000/svg" viewBox="0 0 400 400" style="display: block;"><path d="M0 0 C132 0 264 0 400 0 C400 132 400 264 400 400 C268 400 136 400 0 400 C0 268 0 136 0 0 Z " transform="translate(0,0)" style="fill: #233142;"/><path d="M0 0 C0.99 0 1.98 0 3 0 C3.35191406 0.65484375 3.70382812 1.3096875 4.06640625 1.984375 C7.44318138 8.22655983 10.94830526 14.37243267 14.58203125 20.46875 C16 23 16 23 17 26 C14.36 26 11.72 26 9 26 C9.00666183 26.89900528 9.01332367 27.79801056 9.02018738 28.72425842 C9.08039927 37.21326442 9.1260256 45.70219827 9.15543652 54.19136906 C9.17106549 58.55532535 9.19225292 62.91910458 9.22631836 67.28295898 C9.25901093 71.49751453 9.27687383 75.71190019 9.28463173 79.9265728 C9.29015752 81.53127146 9.30094803 83.13596126 9.31719017 84.74058723 C9.33909662 86.9953097 9.3419615 89.24933794 9.34057617 91.50415039 C9.34723801 92.78544327 9.35389984 94.06673615 9.36076355 95.38685608 C8.75161037 101.48768892 6.37506527 106.62493473 2 111 C-5.2736711 116.27697707 -14.32292176 116.37970121 -23 115 C-29.30818257 112.768133 -32.78253373 108.74253777 -35.91897583 102.9801178 C-38.23160345 96.60477217 -37.60041706 89.62895213 -37.48828125 82.93359375 C-37.47894081 81.28736959 -37.47183052 79.64113141 -37.46684265 77.99488831 C-37.44786936 73.68900305 -37.39885433 69.38397841 -37.34332275 65.07843018 C-37.29191964 60.67414996 -37.26928393 56.26972893 -37.24414062 51.86523438 C-37.19072388 43.24305311 -37.10286954 34.62173319 -37 26 C-32.05 26 -27.1 26 -22 26 C-21.98541748 28.09432373 -21.97083496 30.18864746 -21.95581055 32.34643555 C-21.90543879 39.27161823 -21.8388392 46.19657666 -21.76428509 53.12153912 C-21.71958683 57.31953188 -21.68032963 61.51742773 -21.65356445 65.71557617 C-21.62752584 69.76820995 -21.58711983 73.82047065 -21.53681374 77.87287331 C-21.52014872 79.41774665 -21.50863215 80.96268452 -21.50238609 82.50763512 C-21.49274068 84.6743504 -21.46467831 86.84011205 -21.43237305 89.0065918 C-21.42126999 90.23903122 -21.41016693 91.47147064 -21.39872742 92.74125671 C-20.96415933 96.29292081 -20.24554217 98.22546352 -18 101 C-13.60907888 101.54886514 -11.71499122 101.47666082 -8 99 C-6.63031497 95.54721036 -6.84156648 91.8826332 -6.79467773 88.21191406 C-6.77982834 87.20154335 -6.77982834 87.20154335 -6.76467896 86.17076111 C-6.73318342 83.95241771 -6.70835403 81.73405293 -6.68359375 79.515625 C-6.66301389 77.97433934 -6.64201715 76.4330592 -6.62062073 74.89178467 C-6.5655066 70.84108962 -6.51605046 66.79034453 -6.46777344 62.73956299 C-6.41748044 58.60367394 -6.36183513 54.46785728 -6.30664062 50.33203125 C-6.19918948 42.22141543 -6.09771572 34.11073893 -6 26 C-9.96 26.495 -9.96 26.495 -14 27 C-12.73986896 22.75404122 -11.1617885 19.41479982 -8.6875 15.75 C-5.36114915 10.67696702 -2.58157258 5.48435466 0 0 Z " transform="translate(286,133)" style="fill: #0CAA40;"/><path d="M0 0 C4.62 0 9.24 0 14 0 C14 29.04 14 58.08 14 88 C9.71 88 5.42 88 1 88 C0.67 86.02 0.34 84.04 0 82 C-1.11375 83.175625 -1.11375 83.175625 -2.25 84.375 C-7.08664888 88.9918012 -10.80103836 89.51013239 -17.37109375 89.37890625 C-20 89 -20 89 -23 86.875 C-27.49532995 80.41296319 -28.45006467 75.77594555 -28.3984375 68.0703125 C-28.40130768 67.1211496 -28.40417786 66.17198669 -28.40713501 65.19406128 C-28.40917062 63.19203086 -28.40367606 61.18998032 -28.39111328 59.18798828 C-28.37508835 56.14179408 -28.39096091 53.0969338 -28.41015625 50.05078125 C-28.40817303 48.09895543 -28.40432774 46.14713044 -28.3984375 44.1953125 C-28.40451019 43.29297882 -28.41058289 42.39064514 -28.4168396 41.46096802 C-28.3422968 34.67439822 -27.36544662 28.95680828 -23 23.5 C-18.44006849 21.22003424 -13.97745303 20.96060968 -9 22 C-6.36 23.65 -3.72 25.3 -1 27 C-0.67 18.09 -0.34 9.18 0 0 Z " transform="translate(225,159)" style="fill: #F8F9F9;"/><path d="M0 0 C4.55269584 1.79122459 6.1332014 4.42045296 8.15983582 8.644104 C9.65953613 12.84939869 9.54984339 16.99213707 9.49609375 21.4140625 C9.49754898 22.3873349 9.49900421 23.3606073 9.50050354 24.3633728 C9.49885205 26.40894584 9.48737544 28.45453228 9.46655273 30.5 C9.43751921 33.62293391 9.44597592 36.74417562 9.45898438 39.8671875 C9.45274831 41.86198737 9.44435841 43.85678192 9.43359375 45.8515625 C9.43652939 46.77981842 9.43946503 47.70807434 9.44248962 48.66445923 C9.346149 55.30779384 7.79888036 59.33069366 4.0625 64.875 C-0.60821625 68.11590515 -5.47838942 67.88110807 -11 67 C-13.875 65.59375 -13.875 65.59375 -16 64 C-16 63.34 -16 62.68 -16 62 C-16.66 62 -17.32 62 -18 62 C-18.33 70.25 -18.66 78.5 -19 87 C-23.62 87 -28.24 87 -33 87 C-33 58.62 -33 30.24 -33 1 C-28.38 1 -23.76 1 -19 1 C-18.67 2.32 -18.34 3.64 -18 5 C-17.2575 4.175 -16.515 3.35 -15.75 2.5 C-11.23922052 -1.28948539 -5.57480014 -0.90037149 0 0 Z " transform="translate(336,181)" style="fill: #0CA840;"/><path d="M0 0 C0.75152344 -0.02900391 1.50304687 -0.05800781 2.27734375 -0.08789062 C7.6013681 -0.14828532 10.50921628 0.82899909 14.75 4.3125 C20.79357918 10.49343325 21.98531564 16.11380545 21.93017578 24.43725586 C21.91196777 25.36546143 21.89375977 26.29366699 21.875 27.25 C21.83375 30.240625 21.7925 33.23125 21.75 36.3125 C12.18 36.3125 2.61 36.3125 -7.25 36.3125 C-7.146875 38.705 -7.04375 41.0975 -6.9375 43.5625 C-6.91260498 44.30918945 -6.88770996 45.05587891 -6.86206055 45.82519531 C-6.63947534 49.85230862 -6.27423817 52.52794504 -3.25 55.3125 C0.14070692 55.73633837 2.55962827 55.94736492 5.625 54.3125 C7.42243534 51.1170594 7.45202714 47.94776893 7.75 44.3125 C12.37 44.3125 16.99 44.3125 21.75 44.3125 C21.38200585 53.14435966 19.65419257 58.59875585 13.1875 64.75 C6.74131748 68.88216828 -1.94122494 67.89022263 -9.1875 66.625 C-14.70758434 64.25924957 -17.16708581 61.05300355 -19.36328125 55.58984375 C-21.66728691 49.03079461 -21.85824919 42.74843063 -21.77148438 35.84228516 C-21.75001815 33.81421432 -21.77139683 31.78968336 -21.796875 29.76171875 C-21.76331386 21.21201838 -21.45558957 11.94714015 -15.41210938 5.28710938 C-10.39145718 0.79321413 -6.68316603 0.08424159 0 0 Z " transform="translate(118.25,180.6875)" style="fill: #FAFAFB;"/><path d="M0 0 C3.3780493 2.23786914 4.73002802 5.19008407 6 9 C6.08840088 10.85594728 6.11762704 12.71495117 6.11352539 14.57299805 C6.11344986 15.71395432 6.11337433 16.85491058 6.11329651 18.03044128 C6.10813522 19.26176285 6.10297394 20.49308441 6.09765625 21.76171875 C6.0962413 23.02264847 6.09482635 24.28357819 6.09336853 25.5827179 C6.08871575 28.93151709 6.07973342 32.28024811 6.06866455 35.62902832 C6.05842687 39.04760143 6.05386586 42.46618159 6.04882812 45.88476562 C6.03779099 52.58986504 6.0205222 59.29492317 6 66 C1.71 66 -2.58 66 -7 66 C-7.02505615 64.43523926 -7.0501123 62.87047852 -7.07592773 61.25830078 C-7.16988133 55.46980156 -7.27013118 49.68142573 -7.37231445 43.89306641 C-7.41570903 41.38463216 -7.4573807 38.87616751 -7.49731445 36.36767578 C-7.55490757 32.76846132 -7.61863343 29.16940058 -7.68359375 25.5703125 C-7.70030624 24.44319855 -7.71701874 23.31608459 -7.73423767 22.15481567 C-7.75418289 21.11388763 -7.77412811 20.07295959 -7.79467773 19.00048828 C-7.81022202 18.08115509 -7.8257663 17.1618219 -7.84178162 16.21463013 C-7.8610678 13.95924846 -7.8610678 13.95924846 -9 12 C-13.88523811 11.80842203 -16.31489886 12.12595954 -21 14 C-21 31.16 -21 48.32 -21 66 C-25.62 66 -30.24 66 -35 66 C-35 44.55 -35 23.1 -35 1 C-30.71 1 -26.42 1 -22 1 C-21.67 2.65 -21.34 4.3 -21 6 C-20.071875 5.195625 -19.14375 4.39125 -18.1875 3.5625 C-12.99043227 -0.94162537 -6.60132709 -0.96213674 0 0 Z " transform="translate(182,181)" style="fill: #FAFBFB;"/><path d="M0 0 C4.95 0 9.9 0 15 0 C15 24.75 15 49.5 15 75 C22.26 75 29.52 75 37 75 C37 79.29 37 83.58 37 88 C24.79 88 12.58 88 0 88 C0 58.96 0 29.92 0 0 Z " transform="translate(55,159)" style="fill: #FEFEFE;"/><path d="M0 0 C0.78503906 0.09667969 1.57007813 0.19335938 2.37890625 0.29296875 C4.4375 0.8125 4.4375 0.8125 6.4375 2.8125 C6.67428869 5.71792554 6.78987534 8.52482264 6.80859375 11.43359375 C6.81762222 12.28929459 6.8266507 13.14499542 6.83595276 14.02662659 C6.85047269 15.83810924 6.85934632 17.64964455 6.86303711 19.46118164 C6.87494031 22.23608478 6.92411138 25.00876928 6.97460938 27.78320312 C6.98407252 29.54165579 6.99130808 31.30012214 6.99609375 33.05859375 C7.01562607 33.88991318 7.03515839 34.7212326 7.05528259 35.57774353 C7.03686523 37.92358398 7.03686523 37.92358398 6.4375 41.8125 C3.6362194 44.2308444 1.96445137 44.73872681 -1.6875 45.25 C-4.5625 44.8125 -4.5625 44.8125 -6.21728516 43.32250977 C-8.15588375 39.70531699 -7.99128838 36.2189205 -7.9609375 32.21484375 C-7.96380768 31.38416885 -7.96667786 30.55349396 -7.96963501 29.69764709 C-7.97167297 27.94515296 -7.96616181 26.19263594 -7.95361328 24.44018555 C-7.93753493 21.7558319 -7.95348087 19.0729792 -7.97265625 16.38867188 C-7.97067417 14.68489251 -7.96683122 12.98111408 -7.9609375 11.27734375 C-7.96701019 10.47417221 -7.97308289 9.67100067 -7.9793396 8.8434906 C-7.90944479 3.31744657 -7.90944479 3.31744657 -6.17456055 0.79248047 C-3.94149157 -0.56501444 -2.5636934 -0.35900155 0 0 Z " transform="translate(218.5625,192.1875)" style="fill: #243243;"/><path d="M0 0 C2.74117663 2.46156158 2.99964962 3.99652235 3.37231445 7.6953125 C3.38531292 9.17182086 3.38130916 10.64854449 3.36328125 12.125 C3.36377975 12.90891113 3.36427826 13.69282227 3.36479187 14.50048828 C3.36245578 16.15464824 3.35275461 17.80881204 3.33618164 19.46289062 C3.31258205 21.99120962 3.31562488 24.51847376 3.32226562 27.046875 C3.31668862 28.65625627 3.3095786 30.26563311 3.30078125 31.875 C3.30214836 33.00639404 3.30214836 33.00639404 3.30354309 34.16064453 C3.25333851 37.8871879 3.20615865 40.89940007 1 44 C-1.80915474 45.40457737 -3.88810534 45.24895157 -7 45 C-9.16210938 44.02929688 -9.16210938 44.02929688 -11 42 C-11.40473902 38.97133026 -11.56087181 36.3110752 -11.53125 33.28125 C-11.5350769 32.42696411 -11.53890381 31.57267822 -11.54284668 30.69250488 C-11.54556775 28.8869509 -11.53819285 27.08135763 -11.52148438 25.27587891 C-11.50007623 22.50984944 -11.52127804 19.74641729 -11.546875 16.98046875 C-11.54423176 15.22655676 -11.53910685 13.47264639 -11.53125 11.71875 C-11.53934692 10.89056763 -11.54744385 10.06238525 -11.55578613 9.20910645 C-11.46266405 3.51556846 -11.46266405 3.51556846 -9.18945312 0.98242188 C-5.94381783 -0.47391582 -3.50401907 -0.44596606 0 0 Z " transform="translate(328,192)" style="fill: #223141;"/><path d="M0 0 C3.4375 0.5 3.4375 0.5 5.3125 1.8125 C8.02820079 5.88605118 7.51440176 9.80899258 7.4375 14.5 C2.4875 14.5 -2.4625 14.5 -7.5625 14.5 C-8.04352619 6.44281133 -8.04352619 6.44281133 -6 2.4375 C-3.5625 0.5 -3.5625 0.5 0 0 Z " transform="translate(118.5625,191.5)" style="fill: #2B3849;"/></svg>